<svg xmlns="http://www.w3.org/2000/svg" viewBox="295.9 122.9 736.1 736.1" shape-rendering="geometricPrecision">
<defs>
<path id="a" d="M852,480C857,480 857.1,480.1 870.9,489.9C899,510 935,525 969.9,531.1C984.1,533.5 986.2,534.3 990,538.6C995.2,544.5 995.2,545.6 994.7,598.1C994.2,648.6 993.7,654.8 989.3,673.5C976.9,726 943,770.8 892.5,801.5C886.6,805.1 876.1,810.8 869.1,814.2C860.8,818.2 856.5,820.2 852,820.2C847.5,820.2 843.2,818.2 834.9,814.2C827.9,810.8 817.4,805.1 811.5,801.5C761,770.8 727.1,726 714.7,673.5C710.3,654.8 709.8,648.6 709.3,598.1C708.8,545.6 708.8,544.5 714,538.6C717.8,534.3 719.9,533.5 734.1,531.1C769,525 805,510 833.1,489.9C846.9,480.1 847,480 852,480Z"/>
<path id="b" d="M446,733L803,733A 17 17 0 0 1 820,750L820,812A 17 17 0 0 1 803,829L446,829A 17 17 0 0 1 429,812L429,750A 17 17 0 0 1 446,733Z"/>
<mask id="f"><rect x="295.9" y="122.9" width="736.1" height="736.1" fill="#fff"/><use href="#a" fill="#000" stroke="#000" stroke-width="32"/><use href="#b" fill="#000" stroke="#000" stroke-width="32"/></mask>
<mask id="s"><rect x="295.9" y="122.9" width="736.1" height="736.1" fill="#fff"/><use href="#a" fill="#000" stroke="#000" stroke-width="32"/></mask>
</defs>
<path d="M402.8,770.9C402.1,770.9 397.4,769.8 392.5,768.4C355.4,758.3 341.6,750.3 336,735.3C332.6,726.2 332.6,722.1 335.9,697.5C342.6,648.2 348.5,629.1 364.1,607C380.3,584 416.1,557.5 461.8,534.6C469,531 475,527.8 475,527.6C475,527.4 470.9,521.4 465.8,514.3C432.6,468.1 421.8,441.8 425,415.2C428.5,386.3 450.9,328.8 475,287C521.8,205.9 574.6,161.2 624.5,161.2C674.4,161.2 727.2,205.9 774,287C798.1,328.8 820.5,386.3 824,415.2C827.2,441.8 816.4,468.1 783.2,514.3C778.1,521.4 774,527.4 774,527.6C774,527.8 780,531 787.2,534.6C832.9,557.5 868.7,584 884.9,607C900.5,629.1 906.4,648.2 913.1,697.5C916.4,722.1 916.4,726.2 913,735.3C907.4,750.3 893.6,758.3 856.5,768.4C851.6,769.8 846.9,770.9 846.2,770.9ZM624.5,298.7C602.2,298.7 583,303.1 562.3,313C541.5,322.9 525.4,334.7 506.8,353.6C490.5,370.2 480.4,383.1 471.8,398C464.8,410.3 462.9,427.6 467.4,440.1C473.5,457.6 504.7,503 533.9,537C552.6,558.8 570.8,574.7 608,601.7C618.5,609.3 622.3,612.4 624.5,612.4C626.7,612.4 630.5,609.3 641,601.7C678.2,574.7 696.4,558.8 715.1,537C744.3,503 775.5,457.6 781.6,440.1C786.1,427.6 784.2,410.3 777.2,398C768.6,383.1 758.5,370.2 742.2,353.6C723.6,334.7 707.5,322.9 686.7,313C666,303.1 646.8,298.7 624.5,298.7ZM624.5,406C618.9,406 616.7,406.4 615.2,407.8C614,408.7 611.7,413.8 610,419C603.5,438.8 594.6,448.3 578.5,452.5C571.1,454.4 547.6,454.4 540.8,452.5C524.5,448.1 515.1,437.2 509,416.1C506.8,408.6 506.2,407.5 502.7,405.3C495.5,400.7 494.1,391.6 500,386.6C503.5,383.7 507.8,382.7 526.5,380.5C547,378 585.5,378.9 599,382.1C606.1,383.8 615.5,384.9 624.5,384.9C633.5,384.9 642.9,383.8 650,382.1C663.5,378.9 702,378 722.5,380.5C741.2,382.7 745.5,383.7 749,386.6C754.9,391.6 753.5,400.7 746.3,405.3C742.8,407.5 742.2,408.6 740,416.1C733.9,437.2 724.5,448.1 708.2,452.5C701.4,454.4 677.9,454.4 670.5,452.5C654.4,448.3 645.5,438.8 639,419C637.3,413.8 635,408.7 633.8,407.8C632.3,406.4 630.1,406 624.5,406Z" fill="currentColor" fill-rule="evenodd" mask="url(#f)"/>
<path d="M446,733L803,733A 17 17 0 0 1 820,750L820,812A 17 17 0 0 1 803,829L446,829A 17 17 0 0 1 429,812L429,750A 17 17 0 0 1 446,733ZM465.1,781A 13.4 13.4 0 1 0 491.9,781A 13.4 13.4 0 1 0 465.1,781ZM511.3,781A 13.4 13.4 0 1 0 538.1,781A 13.4 13.4 0 1 0 511.3,781ZM557.5,781A 13.4 13.4 0 1 0 584.3,781A 13.4 13.4 0 1 0 557.5,781ZM694.9,771L773.9,771A 10 10 0 1 1 773.9,791L694.9,791A 10 10 0 1 1 694.9,771Z" fill="currentColor" fill-rule="evenodd" mask="url(#s)"/>
<path d="M852,480C857,480 857.1,480.1 870.9,489.9C899,510 935,525 969.9,531.1C984.1,533.5 986.2,534.3 990,538.6C995.2,544.5 995.2,545.6 994.7,598.1C994.2,648.6 993.7,654.8 989.3,673.5C976.9,726 943,770.8 892.5,801.5C886.6,805.1 876.1,810.8 869.1,814.2C860.8,818.2 856.5,820.2 852,820.2C847.5,820.2 843.2,818.2 834.9,814.2C827.9,810.8 817.4,805.1 811.5,801.5C761,770.8 727.1,726 714.7,673.5C710.3,654.8 709.8,648.6 709.3,598.1C708.8,545.6 708.8,544.5 714,538.6C717.8,534.3 719.9,533.5 734.1,531.1C769,525 805,510 833.1,489.9C846.9,480.1 847,480 852,480ZM852,788C853.5,788 859.2,785.4 864.9,782.4C912.9,756.8 945.5,718.9 958,674.3C963.8,653.6 964.3,649.2 964.7,603.3C964.9,589.2 965,575.1 965.2,561.1C964.4,560.9 963.6,560.7 962.8,560.6C921.1,551.5 892.5,540 862.1,520C857.6,517.1 853.3,514.1 852,514.1C850.7,514.1 846.4,517.1 841.9,520C811.5,540 782.9,551.5 741.2,560.6C740.4,560.7 739.6,560.9 738.8,561.1C739,575.1 739.1,589.2 739.3,603.3C739.7,649.2 740.2,653.6 746,674.3C758.5,718.9 791.1,756.8 839.1,782.4C844.8,785.4 850.5,788 852,788ZM852,561.2C866.6,561.2 881.2,568.6 888.9,583.7C892.6,591.1 894,598.6 894,611.7C894,615.8 894,619.9 894,624C894.9,624 895.8,624 896.8,624C901.3,624.1 907.5,627.5 909.8,631.2C911.9,634.6 912,635.9 912.2,667.6C912.3,701.4 912,704.7 908.2,711C905.3,715.8 899.5,721.2 894.5,723.8C892.8,724.7 891.2,725.6 889.5,726.5C877.5,726.6 865.5,726.6 853.5,726.7C853,726.7 852.5,726.7 852,726.7C851.5,726.7 851,726.7 850.5,726.7C838.5,726.6 826.5,726.6 814.5,726.5C812.8,725.6 811.2,724.7 809.5,723.8C804.5,721.2 798.7,715.8 795.8,711C792,704.7 791.7,701.4 791.8,667.6C792,635.9 792.1,634.6 794.2,631.2C796.5,627.5 802.7,624.1 807.2,624C808.2,624 809.1,624 810,624C810,619.9 810,615.8 810,611.7C810,598.6 811.4,591.1 815.1,583.7C822.8,568.6 837.4,561.2 852,561.2ZM843,680.1A 17.2 17.2 0 1 1 861,680.1L861,694.6A 9 9 0 0 1 843,694.6ZM852,623.8C859.5,623.8 867,623.6 874.5,623.5C874.6,620.4 874.7,617.3 874.8,614.2C875.4,596.1 872,587.8 862.1,582.8C858.7,581.1 855.3,580.1 852,580.1C848.7,580.1 845.3,581.1 841.9,582.8C832,587.8 828.6,596.1 829.2,614.2C829.3,617.3 829.4,620.4 829.5,623.5C837,623.6 844.5,623.8 852,623.8Z" fill="currentColor" fill-rule="evenodd"/>
</svg>